<?xml version="1.0" encoding="UTF-8" standalone="no"?>
<svg
   xmlns:dc="http://purl.org/dc/elements/1.1/"
   xmlns:cc="http://creativecommons.org/ns#"
   xmlns:rdf="http://www.w3.org/1999/02/22-rdf-syntax-ns#"
   xmlns:svg="http://www.w3.org/2000/svg"
   xmlns="http://www.w3.org/2000/svg"
   xmlns:sodipodi="http://sodipodi.sourceforge.net/DTD/sodipodi-0.dtd"
   xmlns:inkscape="http://www.inkscape.org/namespaces/inkscape"
   width="1000mm"
   height="1000mm"
   viewBox="0 0 1000 1000"
   version="1.1"
   id="svg8"
   inkscape:version="1.0.1 (3bc2e813f5, 2020-09-07)"
   sodipodi:docname="na discorda.svg">
  <defs
     id="defs2">
    <rect
       x="1034.4902"
       y="624.4176"
       width="381.66089"
       height="269.40768"
       id="rect910" />
    <rect
       x="704.27612"
       y="-418.2991"
       width="314.50653"
       height="182.68829"
       id="rect1021" />
    <rect
       x="1121.6356"
       y="467.1268"
       width="358.32141"
       height="128.5119"
       id="rect1037" />
    <rect
       x="1106.2495"
       y="604.80865"
       width="534.53906"
       height="205.26299"
       id="rect1019" />
    <inkscape:path-effect
       effect="bspline"
       id="path-effect1758"
       is_visible="true"
       lpeversion="1"
       weight="33.333333"
       steps="2"
       helper_size="0"
       apply_no_weight="true"
       apply_with_weight="true"
       only_selected="false" />
    <inkscape:path-effect
       effect="bspline"
       id="path-effect1756"
       is_visible="true"
       lpeversion="1"
       weight="33.333333"
       steps="2"
       helper_size="0"
       apply_no_weight="true"
       apply_with_weight="true"
       only_selected="false" />
    <inkscape:path-effect
       effect="bspline"
       id="path-effect1754"
       is_visible="true"
       lpeversion="1"
       weight="33.333333"
       steps="2"
       helper_size="0"
       apply_no_weight="true"
       apply_with_weight="true"
       only_selected="false" />
    <inkscape:path-effect
       effect="bspline"
       id="path-effect1216"
       is_visible="true"
       lpeversion="1"
       weight="33.333333"
       steps="2"
       helper_size="0"
       apply_no_weight="true"
       apply_with_weight="true"
       only_selected="false" />
    <inkscape:path-effect
       effect="bspline"
       id="path-effect1214"
       is_visible="true"
       lpeversion="1"
       weight="33.333333"
       steps="2"
       helper_size="0"
       apply_no_weight="true"
       apply_with_weight="true"
       only_selected="false" />
    <inkscape:path-effect
       effect="bspline"
       id="path-effect1212"
       is_visible="true"
       lpeversion="1"
       weight="33.333333"
       steps="2"
       helper_size="0"
       apply_no_weight="true"
       apply_with_weight="true"
       only_selected="false" />
    <inkscape:path-effect
       effect="bspline"
       id="path-effect3692"
       is_visible="true"
       lpeversion="1"
       weight="33.333333"
       steps="2"
       helper_size="0"
       apply_no_weight="true"
       apply_with_weight="true"
       only_selected="false" />
    <inkscape:path-effect
       effect="bspline"
       id="path-effect3635"
       is_visible="true"
       lpeversion="1"
       weight="33.333333"
       steps="2"
       helper_size="0"
       apply_no_weight="true"
       apply_with_weight="true"
       only_selected="false" />
    <inkscape:path-effect
       effect="bspline"
       id="path-effect3616"
       is_visible="true"
       lpeversion="1"
       weight="33.333333"
       steps="2"
       helper_size="0"
       apply_no_weight="true"
       apply_with_weight="true"
       only_selected="false" />
    <inkscape:path-effect
       effect="bspline"
       id="path-effect3125"
       is_visible="true"
       lpeversion="1"
       weight="33.333333"
       steps="2"
       helper_size="0"
       apply_no_weight="true"
       apply_with_weight="true"
       only_selected="false" />
    <inkscape:path-effect
       effect="bspline"
       id="path-effect3123"
       is_visible="true"
       lpeversion="1"
       weight="33.333333"
       steps="2"
       helper_size="0"
       apply_no_weight="true"
       apply_with_weight="true"
       only_selected="false" />
    <inkscape:path-effect
       effect="bspline"
       id="path-effect3121"
       is_visible="true"
       lpeversion="1"
       weight="33.333333"
       steps="2"
       helper_size="0"
       apply_no_weight="true"
       apply_with_weight="true"
       only_selected="false" />
    <inkscape:path-effect
       effect="bspline"
       id="path-effect3119"
       is_visible="true"
       lpeversion="1"
       weight="33.333333"
       steps="2"
       helper_size="0"
       apply_no_weight="true"
       apply_with_weight="true"
       only_selected="false" />
    <inkscape:path-effect
       effect="bspline"
       id="path-effect3117"
       is_visible="true"
       lpeversion="1"
       weight="33.333333"
       steps="2"
       helper_size="0"
       apply_no_weight="true"
       apply_with_weight="true"
       only_selected="false" />
    <inkscape:path-effect
       effect="bspline"
       id="path-effect2727"
       is_visible="true"
       lpeversion="1"
       weight="33.333333"
       steps="2"
       helper_size="0"
       apply_no_weight="true"
       apply_with_weight="true"
       only_selected="false" />
    <inkscape:path-effect
       effect="bspline"
       id="path-effect2725"
       is_visible="true"
       lpeversion="1"
       weight="33.333333"
       steps="2"
       helper_size="0"
       apply_no_weight="true"
       apply_with_weight="true"
       only_selected="false" />
    <inkscape:path-effect
       effect="bspline"
       id="path-effect2723"
       is_visible="true"
       lpeversion="1"
       weight="33.333333"
       steps="2"
       helper_size="0"
       apply_no_weight="true"
       apply_with_weight="true"
       only_selected="false" />
    <rect
       x="625.92859"
       y="-400.65475"
       width="470.20239"
       height="75.595238"
       id="rect2665" />
    <inkscape:path-effect
       effect="bspline"
       id="path-effect2501"
       is_visible="true"
       lpeversion="1"
       weight="33.333333"
       steps="2"
       helper_size="0"
       apply_no_weight="true"
       apply_with_weight="true"
       only_selected="false" />
    <inkscape:path-effect
       effect="bspline"
       id="path-effect2485"
       is_visible="true"
       lpeversion="1"
       weight="33.333333"
       steps="2"
       helper_size="0"
       apply_no_weight="true"
       apply_with_weight="true"
       only_selected="false" />
    <inkscape:path-effect
       effect="bspline"
       id="path-effect2483"
       is_visible="true"
       lpeversion="1"
       weight="33.333333"
       steps="2"
       helper_size="0"
       apply_no_weight="true"
       apply_with_weight="true"
       only_selected="false" />
    <inkscape:path-effect
       effect="bspline"
       id="path-effect2481"
       is_visible="true"
       lpeversion="1"
       weight="33.333333"
       steps="2"
       helper_size="0"
       apply_no_weight="true"
       apply_with_weight="true"
       only_selected="false" />
    <inkscape:path-effect
       effect="bspline"
       id="path-effect2449"
       is_visible="true"
       lpeversion="1"
       weight="33.333333"
       steps="2"
       helper_size="0"
       apply_no_weight="true"
       apply_with_weight="true"
       only_selected="false" />
    <inkscape:path-effect
       effect="bspline"
       id="path-effect2447"
       is_visible="true"
       lpeversion="1"
       weight="33.333333"
       steps="2"
       helper_size="0"
       apply_no_weight="true"
       apply_with_weight="true"
       only_selected="false" />
    <inkscape:path-effect
       effect="bspline"
       id="path-effect2445"
       is_visible="true"
       lpeversion="1"
       weight="33.333333"
       steps="2"
       helper_size="0"
       apply_no_weight="true"
       apply_with_weight="true"
       only_selected="false" />
    <inkscape:path-effect
       effect="bspline"
       id="path-effect2330"
       is_visible="true"
       lpeversion="1"
       weight="33.333333"
       steps="2"
       helper_size="0"
       apply_no_weight="true"
       apply_with_weight="true"
       only_selected="false" />
    <inkscape:path-effect
       effect="bspline"
       id="path-effect2328"
       is_visible="true"
       lpeversion="1"
       weight="33.333333"
       steps="2"
       helper_size="0"
       apply_no_weight="true"
       apply_with_weight="true"
       only_selected="false" />
    <inkscape:path-effect
       effect="bspline"
       id="path-effect2326"
       is_visible="true"
       lpeversion="1"
       weight="33.333333"
       steps="2"
       helper_size="0"
       apply_no_weight="true"
       apply_with_weight="true"
       only_selected="false" />
    <inkscape:path-effect
       effect="bspline"
       id="path-effect2265"
       is_visible="true"
       lpeversion="1"
       weight="33.333333"
       steps="2"
       helper_size="0"
       apply_no_weight="true"
       apply_with_weight="true"
       only_selected="false" />
    <inkscape:path-effect
       effect="bspline"
       id="path-effect2261"
       is_visible="true"
       lpeversion="1"
       weight="33.333333"
       steps="2"
       helper_size="0"
       apply_no_weight="true"
       apply_with_weight="true"
       only_selected="false" />
    <inkscape:path-effect
       effect="bspline"
       id="path-effect2257"
       is_visible="true"
       lpeversion="1"
       weight="33.333333"
       steps="2"
       helper_size="0"
       apply_no_weight="true"
       apply_with_weight="true"
       only_selected="false" />
    <inkscape:path-effect
       effect="bspline"
       id="path-effect930"
       is_visible="true"
       lpeversion="1"
       weight="33.333333"
       steps="2"
       helper_size="0"
       apply_no_weight="true"
       apply_with_weight="true"
       only_selected="false" />
    <inkscape:path-effect
       effect="bspline"
       id="path-effect928"
       is_visible="true"
       lpeversion="1"
       weight="33.333333"
       steps="2"
       helper_size="0"
       apply_no_weight="true"
       apply_with_weight="true"
       only_selected="false" />
    <inkscape:path-effect
       effect="bspline"
       id="path-effect885"
       is_visible="true"
       lpeversion="1"
       weight="33.333333"
       steps="2"
       helper_size="0"
       apply_no_weight="true"
       apply_with_weight="true"
       only_selected="false" />
    <inkscape:path-effect
       effect="bspline"
       id="path-effect875"
       is_visible="true"
       lpeversion="1"
       weight="33.333333"
       steps="2"
       helper_size="0"
       apply_no_weight="true"
       apply_with_weight="true"
       only_selected="false" />
    <inkscape:path-effect
       effect="bspline"
       id="path-effect871"
       is_visible="true"
       lpeversion="1"
       weight="33.333333"
       steps="2"
       helper_size="0"
       apply_no_weight="true"
       apply_with_weight="true"
       only_selected="false" />
  </defs>
  <sodipodi:namedview
     id="base"
     pagecolor="#ffffff"
     bordercolor="#666666"
     borderopacity="1.0"
     inkscape:pageopacity="0.0"
     inkscape:pageshadow="2"
     inkscape:zoom="0.056568542"
     inkscape:cx="1511.9953"
     inkscape:cy="2679.5844"
     inkscape:document-units="mm"
     inkscape:current-layer="layer2"
     inkscape:document-rotation="0"
     showgrid="false"
     inkscape:snap-page="false"
     showguides="true"
     inkscape:guide-bbox="true"
     inkscape:window-width="1560"
     inkscape:window-height="1040"
     inkscape:window-x="78"
     inkscape:window-y="0"
     inkscape:window-maximized="0">
    <sodipodi:guide
       position="205.263,781.90806"
       orientation="1,0"
       id="guide1025" />
    <sodipodi:guide
       position="900.16376,208.8822"
       orientation="1,0"
       id="guide1123" />
    <sodipodi:guide
       position="94.078873,414.14519"
       orientation="0,-1"
       id="guide1176" />
  </sodipodi:namedview>
  <metadata
     id="metadata5">
    <rdf:RDF>
      <cc:Work
         rdf:about="">
        <dc:format>image/svg+xml</dc:format>
        <dc:type
           rdf:resource="http://purl.org/dc/dcmitype/StillImage" />
        <dc:title />
      </cc:Work>
    </rdf:RDF>
  </metadata>
  <g
     inkscape:label="Warstwa 1"
     inkscape:groupmode="layer"
     id="layer1">
    <g
       id="g2785"
       style="opacity:0.509804"
       transform="matrix(-5.6619407,-4.1088636,8.3774555,-3.5209404,7505.8526,11120.528)" />
  </g>
  <g
     inkscape:groupmode="layer"
     id="layer2"
     inkscape:label="Warstwa 2"
     style="opacity:1">
    <rect
       style="fill:#f2f2f2;fill-opacity:1;stroke:none;stroke-width:1.12461;paint-order:stroke markers fill"
       id="rect1023-6"
       width="1002.6474"
       height="1000"
       x="1.7331176e-05"
       y="-2.1728514e-08" />
    <g
       aria-label="Camp #online"
       id="text908-7"
       style="font-style:normal;font-weight:normal;font-size:10.5833px;line-height:0;font-family:sans-serif;white-space:pre;shape-inside:url(#rect910);fill:#212546;fill-opacity:1;stroke:none"
       transform="matrix(3.0405277,0,0,3.0405277,-3019.218,-1276.0571)">
      <path
         d="m 1095.1645,677.12297 q -1.6193,1.04775 -4.6673,2.57175 -2.9527,1.42875 -7.0485,2.4765 -4.0005,1.04775 -8.763,0.9525 -8.0962,-0.0953 -14.478,-2.8575 -6.3817,-2.76225 -10.9537,-7.52475 -4.4768,-4.85775 -6.858,-11.049 -2.3813,-6.2865 -2.3813,-13.335 0,-7.8105 2.4765,-14.2875 2.5718,-6.57225 7.1438,-11.33475 4.572,-4.85775 10.7632,-7.52475 6.2865,-2.667 13.716,-2.667 6.2865,0 11.43,1.7145 5.1435,1.7145 8.6678,3.90525 l -4.0005,9.3345 q -2.7623,-1.905 -6.858,-3.6195 -4.0005,-1.7145 -8.9535,-1.7145 -6.5723,0 -12.0015,3.429 -5.4293,3.429 -8.763,9.23925 -3.2385,5.81025 -3.2385,13.04925 0,7.33425 2.9527,13.1445 3.048,5.81025 8.5725,9.144 5.5245,3.33375 12.954,3.33375 5.334,0 9.3345,-1.61925 4.0958,-1.61925 6.6675,-3.71475 z"
         style="font-size:95.25px;line-height:0.75;fill:#212546;fill-opacity:1"
         id="path942-7" />
      <path
         d="m 1124.7871,683.31422 q -5.6198,0 -10.1918,-2.38125 -4.572,-2.38125 -7.239,-6.95325 -2.667,-4.66725 -2.667,-11.52525 0,-6.6675 2.7623,-11.43 2.8575,-4.85775 7.4295,-7.4295 4.572,-2.667 10.0965,-2.667 5.5245,0 9.144,2.286 3.6195,2.19075 5.715,5.334 l 0.6667,-6.00075 h 8.8583 v 39.8145 h -9.6203 v -6.2865 q -1.0477,1.3335 -3.1432,3.048 -2.0955,1.7145 -5.0483,2.95275 -2.9527,1.23825 -6.7627,1.23825 z m 2.5717,-7.90575 q 4.6673,0 8.001,-2.4765 3.3338,-2.57175 4.3815,-6.95325 v -8.1915 q -1.143,-3.90525 -4.6672,-6.477 -3.429,-2.57175 -8.001,-2.57175 -3.429,0 -6.2865,1.7145 -2.8575,1.61925 -4.572,4.66725 -1.7145,2.95275 -1.7145,6.858 0,3.81 1.7145,6.858 1.8097,3.048 4.7625,4.85775 2.9527,1.7145 6.3817,1.7145 z"
         style="font-size:95.25px;line-height:0.75;fill:#212546;fill-opacity:1"
         id="path944-3" />
      <path
         d="m 1173.0788,642.54722 0.6667,7.33425 q 2.286,-4.191 6.1913,-6.57225 4.0005,-2.38125 9.0487,-2.38125 4.953,0 8.2868,2.286 3.3337,2.286 4.0005,6.19125 2.4765,-4.0005 6.2865,-6.19125 3.81,-2.286 8.0962,-2.286 5.8103,0 9.2393,3.33375 3.429,3.2385 3.6195,8.5725 v 29.5275 h -9.525 v -25.908 q -0.1905,-3.048 -1.4288,-5.04825 -1.2382,-2.00025 -4.572,-2.19075 -3.5242,0 -6.096,2.0955 -2.5717,2.0955 -4.0957,5.42925 -1.4288,3.33375 -1.524,7.14375 v 18.4785 h -9.6203 v -25.908 q -0.095,-3.048 -1.524,-5.04825 -1.3335,-2.00025 -4.6672,-2.19075 -3.429,0 -6.0008,2.0955 -2.5717,2.0955 -4.0005,5.5245 -1.4287,3.33375 -1.4287,7.14375 v 18.38325 h -9.6203 v -39.8145 z"
         style="font-size:95.25px;line-height:0.75;fill:#212546;fill-opacity:1"
         id="path946-6" />
      <path
         d="m 1267.3762,683.31422 q -4.191,0 -8.001,-1.7145 -3.81,-1.7145 -6.1912,-4.85775 v 24.765 h -9.6203 v -59.6265 h 8.2868 l 0.8572,6.477 q 2.8575,-3.2385 7.0485,-5.334 4.191,-2.0955 9.4298,-2.0955 5.6197,0 10.0012,2.667 4.4768,2.667 7.0485,7.52475 2.5718,4.7625 2.5718,11.2395 0,6.477 -2.8575,11.2395 -2.7623,4.66725 -7.62,7.239 -4.7625,2.4765 -10.9538,2.4765 z m -1.905,-7.62 q 3.7148,0 6.7628,-1.7145 3.1432,-1.7145 4.953,-4.66725 1.905,-3.048 1.905,-6.858 0,-3.90525 -1.7145,-6.95325 -1.7145,-3.048 -4.6673,-4.7625 -2.9527,-1.7145 -6.5722,-1.7145 -4.953,0 -8.382,2.667 -3.3338,2.667 -4.572,7.0485 v 7.14375 q 0.762,4.28625 4.191,7.0485 3.429,2.76225 8.0962,2.76225 z"
         style="font-size:95.25px;line-height:0.75;fill:#212546;fill-opacity:1"
         id="path948-5" />
      <path
         d="m 1044.5105,694.19177 q -0.2286,1.8288 -0.4572,3.6195 -0.1905,1.7907 -0.4572,3.6576 h 3.6576 q 0.1905,-1.8669 0.4191,-3.6576 0.2667,-1.7907 0.4572,-3.6195 h 3.5052 q -0.2286,1.8288 -0.4572,3.6195 -0.2286,1.7907 -0.4572,3.6576 h 3.81 q -0.076,0.8382 -0.1524,1.6764 -0.076,0.8382 -0.1524,1.6764 h -3.8862 q -0.1143,0.9144 -0.2286,1.8669 -0.1143,0.9144 -0.1905,1.8288 h 3.81 q -0.076,0.8382 -0.2286,1.6764 -0.1143,0.8382 -0.1524,1.7145 h -3.8481 q -0.1905,1.7907 -0.4191,3.5814 -0.2286,1.7907 -0.4191,3.5433 h -3.5052 q 0.1905,-1.7526 0.4191,-3.5433 0.2286,-1.7907 0.4191,-3.5814 h -3.5814 q -0.1905,1.7907 -0.4572,3.5814 -0.2286,1.7907 -0.381,3.5433 h -3.5052 q 0.1905,-1.7526 0.381,-3.5433 0.2286,-1.7907 0.4191,-3.5814 h -3.429 q 0.076,-0.8763 0.1905,-1.7145 0.1524,-0.8382 0.1905,-1.6764 h 3.5052 q 0.1143,-0.9144 0.1905,-1.8288 0.1143,-0.9525 0.2286,-1.8669 h -3.429 q 0.076,-0.8382 0.1524,-1.6764 0.1143,-0.8382 0.1905,-1.6764 h 3.4671 q 0.2286,-1.8669 0.4572,-3.6576 0.2286,-1.7907 0.4572,-3.6195 z m -1.2573,10.6299 q -0.1143,0.9144 -0.2286,1.8669 -0.1143,0.9144 -0.2286,1.8288 h 3.6195 q 0.1143,-0.9144 0.2286,-1.8288 0.1143,-0.9525 0.1905,-1.8669 z"
         style="letter-spacing:11.9062px"
         id="path950-4" />
      <path
         d="m 1070.0946,710.91767 q 0,-2.4003 1.143,-4.3053 1.143,-1.905 3.1242,-3.0099 2.0193,-1.143 4.6482,-1.143 2.6289,0 4.572,1.143 1.9812,1.1049 3.048,3.0099 1.1049,1.905 1.1049,4.3053 0,2.4003 -1.1049,4.3434 -1.1049,1.905 -3.0861,3.048 -1.9812,1.1049 -4.6101,1.1049 -2.5527,0 -4.5339,-1.0287 -1.9812,-1.0287 -3.1623,-2.9337 -1.143,-1.905 -1.143,-4.5339 z m 3.8862,0.0381 q 0,1.524 0.6477,2.7051 0.6477,1.1811 1.7526,1.905 1.143,0.6858 2.5146,0.6858 2.1717,0 3.5433,-1.524 1.4097,-1.524 1.4097,-3.7719 0,-2.2479 -1.4097,-3.7719 -1.3716,-1.5621 -3.5433,-1.5621 -1.4097,0 -2.5146,0.7239 -1.1049,0.7239 -1.7526,1.9431 -0.6477,1.2192 -0.6477,2.667 z"
         style="line-height:0.75;letter-spacing:11.9062px;fill:#212546;fill-opacity:1"
         id="path952-3" />
      <path
         d="m 1107.7564,703.10717 0.2667,3.048 q 0.762,-1.6764 2.4384,-2.667 1.6764,-0.9906 3.9243,-0.9906 2.2098,0 3.6576,1.3335 1.4478,1.3335 1.524,3.429 v 11.7729 h -3.8481 v -10.4394 q -0.038,-1.2192 -0.7239,-1.9812 -0.6858,-0.8001 -2.1336,-0.8382 -2.0193,0 -3.3909,1.6764 -1.3335,1.6764 -1.3335,4.3053 v 7.2771 h -3.8481 v -15.9258 z"
         style="line-height:0.75;letter-spacing:11.9062px;fill:#212546;fill-opacity:1"
         id="path954-4" />
      <path
         d="m 1137.5315,689.42927 h 3.8481 v 29.6037 h -3.8481 z"
         style="line-height:0.75;letter-spacing:11.9062px;fill:#212546;fill-opacity:1"
         id="path956-5" />
      <path
         d="m 1159.3055,703.10717 h 3.8481 v 15.9258 h -3.8481 z m -0.1905,-5.715 q 0,-0.8763 0.6858,-1.4859 0.7239,-0.6096 1.5621,-0.6096 0.8382,0 1.524,0.6096 0.6858,0.6096 0.6858,1.4859 0,0.9525 -0.6858,1.524 -0.6858,0.5715 -1.524,0.5715 -0.8382,0 -1.5621,-0.5715 -0.6858,-0.5715 -0.6858,-1.524 z"
         style="line-height:0.75;letter-spacing:11.9062px;fill:#212546;fill-opacity:1"
         id="path958-3" />
      <path
         d="m 1184.5467,703.10717 0.2667,3.048 q 0.762,-1.6764 2.4384,-2.667 1.6764,-0.9906 3.9243,-0.9906 2.2098,0 3.6576,1.3335 1.4478,1.3335 1.524,3.429 v 11.7729 h -3.8481 v -10.4394 q -0.038,-1.2192 -0.7239,-1.9812 -0.6858,-0.8001 -2.1336,-0.8382 -2.0193,0 -3.3909,1.6764 -1.3335,1.6764 -1.3335,4.3053 v 7.2771 h -3.8481 v -15.9258 z"
         style="line-height:0.75;letter-spacing:11.9062px;fill:#212546;fill-opacity:1"
         id="path960-6" />
      <path
         d="m 1221.7893,719.41397 q -2.7432,0 -4.7244,-1.0668 -1.9812,-1.1049 -3.048,-3.0099 -1.0668,-1.9431 -1.0668,-4.3815 0,-2.3622 1.1811,-4.2672 1.2192,-1.9431 3.2385,-3.0861 2.0193,-1.143 4.4958,-1.143 3.2004,0 5.2959,1.8669 2.1336,1.8288 2.8575,5.1816 l -12.4587,4.3053 q 0.6858,1.1049 1.7907,1.7145 1.143,0.6096 2.5146,0.6096 1.0287,0 1.9812,-0.3429 0.9525,-0.3429 1.7907,-0.9906 l 1.7526,2.8575 q -1.2192,0.8001 -2.7051,1.2954 -1.4859,0.4572 -2.8956,0.4572 z m -5.0292,-8.6868 q 0,0.4191 0.038,0.8001 l 8.8773,-3.2385 q -0.4953,-1.1049 -1.4859,-1.9431 -0.9525,-0.8382 -2.5908,-0.8382 -2.1336,0 -3.5052,1.4859 -1.3335,1.4478 -1.3335,3.7338 z"
         style="line-height:0.75;letter-spacing:11.9062px;fill:#212546;fill-opacity:1"
         id="path962-5" />
    </g>
    <g
       id="g2113-0-4"
       transform="matrix(2.3263011,0,0,2.3263011,309.71895,55.282102)"
       style="opacity:1">
      <g
         id="g1121"
         transform="translate(65.190721,16.29768)">
        <path
           fill-rule="evenodd"
           clip-rule="evenodd"
           fill="#faa21b"
           d="m 45.2,21.895 c 24.751,0 44.853,19.896 45.192,44.566 H 90.4 v 0.634 45.2 H 45.2 44.683 v -0.006 C 19.958,112.011 0,91.886 0,67.095 0,42.131 20.237,21.895 45.2,21.895 Z m -0.098,18.364 c -14.447,0 -26.159,12.015 -26.159,26.835 0,14.718 11.55,26.667 25.86,26.832 v 0.003 h 0.299 26.159 V 67.095 66.719 H 71.256 C 71.06,52.071 59.426,40.259 45.102,40.259 Z"
           id="path2101-9-5" />
        <path
           fill-rule="evenodd"
           clip-rule="evenodd"
           fill="#001936"
           d="m 45.2,210.766 c 24.751,0 44.853,-19.896 45.192,-44.566 H 90.4 v -0.634 -45.2 H 45.2 44.683 v 0.006 C 19.958,120.65 0,140.775 0,165.566 c 0,24.962 20.237,45.2 45.2,45.2 z m -0.098,-18.365 c -14.447,0 -26.159,-12.015 -26.159,-26.835 0,-14.718 11.55,-26.667 25.86,-26.832 v -0.003 h 0.299 26.159 v 26.835 0.376 h -0.005 c -0.196,14.647 -11.83,26.459 -26.154,26.459 z"
           id="path2103-0-0" />
        <path
           fill-rule="evenodd"
           clip-rule="evenodd"
           fill="#001936"
           d="m 98.542,0.008 c 9,-0.204 17.93,3.545 19.049,20.216 v 38.209 h 28.107 c 19.462,-0.382 25.341,-20.076 24.511,-35.74 h 18.93 c 0.93,25.328 -7.374,37.651 -18.424,44.506 11.051,6.855 19.354,19.178 18.424,44.506 h -18.93 c 0.92,-17.349 -2.17,-30.688 -23.86,-35.727 L 117.59,76.14 v 18.261 c -7.856,0.787 -10.332,0.971 -19.049,9.653 V 0.008 Z"
           id="path2105-0-3" />
        <path
           fill-rule="evenodd"
           clip-rule="evenodd"
           fill="#faa21b"
           d="m 117.863,117.782 v -17.263 c -9.81,0 -17.839,7.62 -18.496,17.263 l -0.044,1.276 v 17.263 c 9.81,0 17.839,-7.62 18.495,-17.263 z"
           id="path2107-7-3" />
        <path
           fill-rule="evenodd"
           clip-rule="evenodd"
           fill="#001936"
           d="m 170.043,120.958 h 18.579 l -0.031,36.897 c -0.656,9.644 -8.686,17.263 -18.496,17.263 v -17.263 z"
           id="path2109-8-3" />
        <path
           fill-rule="evenodd"
           clip-rule="evenodd"
           fill="#001936"
           d="m 99.522,142.71 c 8.802,-0.187 15.365,-4.473 18.577,-9.317 l -0.031,61.122 c -0.656,9.644 -8.686,17.263 -18.496,17.263 v -17.263 z"
           id="path2111-7-4" />
      </g>
    </g>
    <path
       style="fill:#f25843;fill-opacity:1;stroke:none;stroke-width:0.264583px;stroke-linecap:butt;stroke-linejoin:miter;stroke-opacity:1"
       d="M 0,0 0.2838,636.59654 539.09918,-0.57399 Z"
       id="path1125" />
  </g>
</svg>
